<svg xmlns="http://www.w3.org/2000/svg" width="422.7" height="76.3" viewBox="0 0 422.7 76.3">
  <g id="Community" transform="translate(-971.25 -13042.591)">
    <path id="Path_4348" data-name="Path 4348" d="M20.55-6.5A2.092,2.092,0,0,1,18.4-4.4H10.65A2.092,2.092,0,0,1,8.5-6.5V-33.3H3.75V-5.5A5.442,5.442,0,0,0,9.2,0H19.8a5.484,5.484,0,0,0,5.5-5.5V-33.3H20.55ZM47.8-13.55c1.55.45,2.1.95,2.1,2.15v4.9a2.134,2.134,0,0,1-2.15,2.15h-7.4A2.134,2.134,0,0,1,38.2-6.5v-3.55l-4.75.8V-5.5A5.484,5.484,0,0,0,38.95,0h10.2a5.453,5.453,0,0,0,5.5-5.5v-6.9c0-3.05-2.35-4.6-5.2-5.4-3.9-1.1-5.4-1.5-9.05-2.55-1.2-.35-2.05-.9-2.05-2.2V-26.8a2.124,2.124,0,0,1,2.1-2.15H47.6a2.134,2.134,0,0,1,2.15,2.15v3.6L54.5-24v-3.8A5.484,5.484,0,0,0,49-33.3H39.1a5.453,5.453,0,0,0-5.5,5.5v6.3c0,3.05,2.3,4.55,5.25,5.4C42.65-15,43.8-14.7,47.8-13.55ZM79.75-6.5A2.092,2.092,0,0,1,77.6-4.4H69.7a2.092,2.092,0,0,1-2.15-2.1V-26.8a2.092,2.092,0,0,1,2.15-2.1h7.9a2.092,2.092,0,0,1,2.15,2.1v4.35l4.75-.8V-27.8A5.484,5.484,0,0,0,79-33.3H68.25a5.442,5.442,0,0,0-5.45,5.5V-5.5A5.442,5.442,0,0,0,68.25,0H79a5.484,5.484,0,0,0,5.5-5.5v-4.8l-4.75-.8Zm29.7,0a2.092,2.092,0,0,1-2.15,2.1H99.4a2.092,2.092,0,0,1-2.15-2.1V-26.8a2.092,2.092,0,0,1,2.15-2.1h7.9a2.092,2.092,0,0,1,2.15,2.1v4.35l4.75-.8V-27.8a5.484,5.484,0,0,0-5.5-5.5H97.95a5.442,5.442,0,0,0-5.45,5.5V-5.5A5.442,5.442,0,0,0,97.95,0H108.7a5.484,5.484,0,0,0,5.5-5.5v-4.8l-4.75-.8Zm26.1-26.8h-4.5L119.7,0h4.85l2.6-7.9H139.4L142.1,0h4.8Zm-2.25,6.35L138-12.2h-9.4ZM181.65-6.5a2.092,2.092,0,0,1-2.15,2.1h-7.9a2.092,2.092,0,0,1-2.15-2.1V-26.8a2.092,2.092,0,0,1,2.15-2.1h7.9a2.092,2.092,0,0,1,2.15,2.1v4.35l4.75-.8V-27.8a5.484,5.484,0,0,0-5.5-5.5H170.15a5.442,5.442,0,0,0-5.45,5.5V-5.5A5.442,5.442,0,0,0,170.15,0H180.9a5.484,5.484,0,0,0,5.5-5.5v-4.8l-4.75-.8ZM199.85,0h11.2a5.484,5.484,0,0,0,5.5-5.5V-27.8a5.484,5.484,0,0,0-5.5-5.5h-11.2a5.442,5.442,0,0,0-5.45,5.5V-5.5A5.442,5.442,0,0,0,199.85,0ZM211.8-6.5a2.051,2.051,0,0,1-2.1,2.1h-8.4a2.092,2.092,0,0,1-2.15-2.1V-26.8a2.092,2.092,0,0,1,2.15-2.1h8.4a2.051,2.051,0,0,1,2.1,2.1Zm25.4.25h4.3l7.3-16.4V0h4.6V-33.3h-4.6l-9.45,21.5L229.9-33.3h-4.6V0h4.6V-22.65Zm37.1,0h4.3l7.3-16.4V0h4.6V-33.3h-4.6l-9.45,21.5L267-33.3h-4.6V0H267V-22.65Zm41.75-.25a2.092,2.092,0,0,1-2.15,2.1h-7.75A2.092,2.092,0,0,1,304-6.5V-33.3h-4.75V-5.5A5.442,5.442,0,0,0,304.7,0h10.6a5.484,5.484,0,0,0,5.5-5.5V-33.3h-4.75Zm36.8-26.8h-4.6V-8.55L334.15-33.3h-4.6V0h4.6V-24.65L348.25,0h4.6Zm14,0H362.1V0h4.75Zm6.5,4.4h9.5V0h4.75V-28.9h9.5v-4.4H373.35Zm32.55-4.4h-5.05L411-13.3V0h4.8V-13.3l10.15-20H420.9l-7.5,14.7Z" transform="translate(968 13075.891)" fill="#fff"/>
    <path id="Path_4349" data-name="Path 4349" d="M29.55-19.6H10.9a.472.472,0,0,1-.5-.5v-6.4a.472.472,0,0,1,.5-.5h5a.472.472,0,0,1,.5.5v2.75l6.85-1.2V-28.1a5.186,5.186,0,0,0-5.15-5.2H8.75A5.207,5.207,0,0,0,3.5-28.1v8.35A3.37,3.37,0,0,0,5.3-16.9a3.226,3.226,0,0,0-2.05,3.25V-5.2A5.239,5.239,0,0,0,8.5,0H19.05A5.186,5.186,0,0,0,24.2-5.2v-8.4h5.35Zm-19.4,6.5a.472.472,0,0,1,.5-.5H17.6v6.9a.472.472,0,0,1-.5.5H10.65a.472.472,0,0,1-.5-.5Zm50.2.65V-7.1a.472.472,0,0,1-.5.5h-7.1a.472.472,0,0,1-.5-.5V-26.2a.472.472,0,0,1,.5-.5h7.1a.472.472,0,0,1,.5.5v4.6l7.1-1.2v-5a5.484,5.484,0,0,0-5.5-5.5H50.5A5.484,5.484,0,0,0,45-27.8V-5.5A5.484,5.484,0,0,0,50.5,0H61.95a5.484,5.484,0,0,0,5.5-5.5v-5.75ZM97.75-5.5V-27.8a5.484,5.484,0,0,0-5.5-5.5H79.95a5.484,5.484,0,0,0-5.5,5.5V-5.5A5.484,5.484,0,0,0,79.95,0h12.3A5.484,5.484,0,0,0,97.75-5.5ZM90.5-26.2V-7.1a.472.472,0,0,1-.5.5H82.2a.472.472,0,0,1-.5-.5V-26.2a.472.472,0,0,1,.5-.5H90A.472.472,0,0,1,90.5-26.2Zm40.1-7.1h-7v19.5L112.5-33.3h-7V0h7V-19.4L123.6,0h7Zm33.1,0h-7v19.5L145.6-33.3h-7V0h7V-19.4L156.7,0h7Zm8,33.3h20.75V-6.6h-13.5v-7.15h12.4v-6.6h-12.4V-26.7H192.4v-6.6H171.7Zm42.85-12.45V-7.1a.472.472,0,0,1-.5.5h-7.1a.472.472,0,0,1-.5-.5V-26.2a.472.472,0,0,1,.5-.5h7.1a.472.472,0,0,1,.5.5v4.6l7.1-1.2v-5a5.484,5.484,0,0,0-5.5-5.5H204.7a5.484,5.484,0,0,0-5.5,5.5V-5.5A5.484,5.484,0,0,0,204.7,0h11.45a5.484,5.484,0,0,0,5.5-5.5v-5.75Zm12.1-14.25h8.6V0h7.25V-26.7h8.6v-6.6H226.65Zm37.7-6.6H257.1V0h7.25Zm31.3,27.8V-27.8a5.484,5.484,0,0,0-5.5-5.5h-12.3a5.484,5.484,0,0,0-5.5,5.5V-5.5a5.484,5.484,0,0,0,5.5,5.5h12.3A5.484,5.484,0,0,0,295.65-5.5ZM288.4-26.2V-7.1a.472.472,0,0,1-.5.5h-7.8a.472.472,0,0,1-.5-.5V-26.2a.472.472,0,0,1,.5-.5h7.8A.472.472,0,0,1,288.4-26.2Zm40.1-7.1h-7v19.5L310.4-33.3h-7V0h7V-19.4L321.5,0h7Z" transform="translate(968 13118.891)" fill="#fff"/>
  </g>
</svg>
