<svg xmlns="http://www.w3.org/2000/svg" xmlns:xlink="http://www.w3.org/1999/xlink" width="98.741" height="35.273" viewBox="0 0 98.741 35.273">
  <defs>
    <clipPath id="clip-path">
      <rect id="Rectangle_2056" data-name="Rectangle 2056" width="98.741" height="35.273" fill="#cbced1"/>
    </clipPath>
  </defs>
  <g id="Group_4434" data-name="Group 4434" clip-path="url(#clip-path)">
    <path id="Path_316" data-name="Path 316" d="M.692,1.088V.068Q4.12.281,8.153.28L15.873.11a14.473,14.473,0,0,1,6.274,1.141A8.014,8.014,0,0,1,25.79,4.883a12.379,12.379,0,0,1,1.3,5.8A13.371,13.371,0,0,1,22.962,20.75q-4.127,3.971-11.078,3.971-.4,0-3.173-.106t-3.259-.107q-1.682,0-4.8.256v-1.02Q3.5,23.2,3.82,23.1a1.156,1.156,0,0,0,.463-.244.749.749,0,0,0,.193-.383,27.928,27.928,0,0,0,.114-2.961q.1-5.659.1-8.237l-.1-7.628L4.6,3.056q0-.871-.5-1.115A26.716,26.716,0,0,0,.692,1.088m7.4,21.593a39.987,39.987,0,0,0,4.7.34,10.922,10.922,0,0,0,4.874-.956,9.521,9.521,0,0,0,4.173-4.1,14.028,14.028,0,0,0,1.426-6.624,13.836,13.836,0,0,0-.476-3.747,7.7,7.7,0,0,0-1.27-2.7A7.393,7.393,0,0,0,18.492,2.6,14.359,14.359,0,0,0,13.1,1.811q-2.126,0-5.012.255Q8,6.642,8,12.434q0,6.124.085,10.247" transform="translate(-0.353 -0.037)" fill="#cbced1"/>
    <path id="Path_317" data-name="Path 317" d="M64.64,10.992h4.22a16.272,16.272,0,0,0,2.878-.132,1.277,1.277,0,0,0,.707-.537,9.143,9.143,0,0,0,.671-2.345c.035-.128.086-.328.157-.6h1.148q-.214,2.883-.213,4.438,0,1.608.213,4.4H73.273q-.5-2.531-.625-2.827a1.089,1.089,0,0,0-.609-.6,9.919,9.919,0,0,0-2.59-.183H64.685l.087,10.244h7.315l.646-.017a8.463,8.463,0,0,0,1.886-.122,2.877,2.877,0,0,0,1.169-.754,18.952,18.952,0,0,0,1.868-2.988q.14-.242.419-.71h1.148q-.21.555-2.154,6.5-6.322-.214-11.55-.213-3.647,0-8.059.213v-1.02l2.815-.61a1.844,1.844,0,0,0,.834-.383,2.435,2.435,0,0,0,.261-1.375v-.314l.094-4.092q.016-1.184.017-4.649,0-5.032-.035-7.374a12.988,12.988,0,0,0-.173-2.656.822.822,0,0,0-.319-.339,8.836,8.836,0,0,0-1.593-.445L57.5,1.088V.068q3.258.213,7.78.212Q67.76.28,77.065.068a50.612,50.612,0,0,0,.415,5.95H76.248a17.974,17.974,0,0,0-1.131-3.11,1.491,1.491,0,0,0-.731-.705,8.847,8.847,0,0,0-2.541-.223H64.814l-.121,5.591Z" transform="translate(-31.233 -0.037)" fill="#cbced1"/>
    <path id="Path_318" data-name="Path 318" d="M107.889,1.088V.068q4.23.213,5.732.212.933,0,5.957-.212v1.02q-3.118.539-3.654.713a1,1,0,0,0-.554.382,3.92,3.92,0,0,0-.233,1.512q-.033,1.148-.032,12.859,0,2.311.052,6.169h7.652a7.437,7.437,0,0,0,2.239-.209,2.8,2.8,0,0,0,1.076-.922A32.648,32.648,0,0,0,128.207,18h1.488L128.3,21.91q-.364,1.085-.886,2.853-7.21-.213-12.555-.212-3.779,0-7.017.212v-1.02a27.7,27.7,0,0,0,3.114-.671,1.142,1.142,0,0,0,.632-.5,5.618,5.618,0,0,0,.164-1.828l.094-10.675L111.8,3.2q0-.889-.257-1.114A7,7,0,0,0,109,1.349q-.379-.069-1.115-.261" transform="translate(-58.621 -0.037)" fill="#cbced1"/>
    <path id="Path_319" data-name="Path 319" d="M178.59,24.589,168.35.013l-.012.026q-7.179.212-9.9.212-3.276,0-10.952-.212Q147.23,3.781,146.9,6.8h1.318a29.059,29.059,0,0,1,.9-3.232,2.49,2.49,0,0,1,.869-1.238,2.685,2.685,0,0,1,1.3-.207l.747-.016h4.135q.071,3.564.07,8.241,0,2.677-.07,8.24-.051,3.6-.13,3.85a.835.835,0,0,1-.236.391,7.113,7.113,0,0,1-2.716.759,3.13,3.13,0,0,1-.954.1l-.011.9c1.766.01,3.416,0,5.1,0l0,.005ZM159.5,23.077l7.745-17.114,7.13,17.114Zm.017-9.546q0-6.822.139-11.453h3.832a4.608,4.608,0,0,1,2.08.307,2.078,2.078,0,0,1,.839.892c.051.115.115.319.2.6l-7.045,15.567q-.045-2.281-.045-5.907" transform="translate(-79.848 -0.007)" fill="#cbced1"/>
    <path id="Path_320" data-name="Path 320" d="M197.892,1.727V.205h-.6V0h1.448v.2h-.6V1.727Z" transform="translate(-107.237 0)" fill="#cbced1"/>
    <path id="Path_321" data-name="Path 321" d="M201,1.727V0h.363l.433,1.223q.06.17.087.255c.021-.063.054-.155.1-.276l.441-1.2h.323V1.727h-.233V.283l-.532,1.444h-.218L201.233.258V1.727Z" transform="translate(-109.254)" fill="#cbced1"/>
    <path id="Path_322" data-name="Path 322" d="M0,67.759v-.211H.289a.761.761,0,0,0,.69-.31A1.777,1.777,0,0,0,1.1,66.4V61.444a1.581,1.581,0,0,0-.158-.9A.83.83,0,0,0,.289,60.3H0v-.209H3.123a6.806,6.806,0,0,1,2.616.391,3.11,3.11,0,0,1,1.443,1.3,4.018,4.018,0,0,1,.546,2.1,3.838,3.838,0,0,1-.973,2.676,4.281,4.281,0,0,1-3.326,1.2ZM2.19,67.2a5.781,5.781,0,0,0,1.205.158,2.858,2.858,0,0,0,2.178-.922,4.052,4.052,0,0,0,0-5.006,2.922,2.922,0,0,0-2.223-.916,4.793,4.793,0,0,0-1.16.164Z" transform="translate(0 -32.66)" fill="#cbced1"/>
    <path id="Path_323" data-name="Path 323" d="M25.677,60.506v3.032h1.686a1.374,1.374,0,0,0,.876-.2,1.27,1.27,0,0,0,.328-.917h.21v2.67h-.21a2.9,2.9,0,0,0-.158-.718.706.706,0,0,0-.334-.311,1.705,1.705,0,0,0-.713-.113H25.677v2.528a2.323,2.323,0,0,0,.046.62.349.349,0,0,0,.158.175.953.953,0,0,0,.43.065h1.3a3.51,3.51,0,0,0,.945-.09,1.407,1.407,0,0,0,.566-.356,4.347,4.347,0,0,0,.718-1.057h.226L29.4,67.759H23.494v-.21h.271a1.081,1.081,0,0,0,.515-.129.479.479,0,0,0,.246-.272,2.669,2.669,0,0,0,.065-.742V61.423a1.653,1.653,0,0,0-.147-.9.877.877,0,0,0-.679-.226h-.271v-.21H29.4l.085,1.68h-.22a2.654,2.654,0,0,0-.263-.832.909.909,0,0,0-.427-.345,2.577,2.577,0,0,0-.8-.085Z" transform="translate(-12.77 -32.66)" fill="#cbced1"/>
    <path id="Path_324" data-name="Path 324" d="M46.145,60.506v3.015h1.4a.991.991,0,0,0,.7-.212,1.4,1.4,0,0,0,.3-.84h.209v2.6h-.209a1.529,1.529,0,0,0-.116-.656.741.741,0,0,0-.306-.314,1.255,1.255,0,0,0-.58-.1h-1.4V66.4a2.528,2.528,0,0,0,.073.77.5.5,0,0,0,.238.244,1.076,1.076,0,0,0,.52.135h.278v.21H43.961v-.21h.272a.819.819,0,0,0,.69-.277,1.72,1.72,0,0,0,.136-.872V61.444a2.546,2.546,0,0,0-.073-.769.514.514,0,0,0-.232-.243,1.057,1.057,0,0,0-.521-.136h-.272v-.21h5.708l.073,1.687h-.2a2.328,2.328,0,0,0-.342-.79,1.116,1.116,0,0,0-.481-.364,2.556,2.556,0,0,0-.885-.114Z" transform="translate(-23.895 -32.66)" fill="#cbced1"/>
    <path id="Path_325" data-name="Path 325" d="M65.449,60.506v3.032h1.686a1.376,1.376,0,0,0,.877-.2,1.274,1.274,0,0,0,.328-.917h.21v2.67h-.21a2.9,2.9,0,0,0-.158-.718.7.7,0,0,0-.334-.311,1.7,1.7,0,0,0-.713-.113H65.449v2.528a2.324,2.324,0,0,0,.046.62.355.355,0,0,0,.158.175.954.954,0,0,0,.43.065h1.3a3.509,3.509,0,0,0,.944-.09,1.41,1.41,0,0,0,.566-.356,4.36,4.36,0,0,0,.718-1.057h.226l-.662,1.923H63.266v-.21h.272a1.082,1.082,0,0,0,.515-.129.479.479,0,0,0,.246-.272,2.669,2.669,0,0,0,.065-.742V61.423a1.653,1.653,0,0,0-.147-.9.876.876,0,0,0-.679-.226h-.272v-.21h5.911l.084,1.68h-.22a2.654,2.654,0,0,0-.263-.832.914.914,0,0,0-.427-.345,2.579,2.579,0,0,0-.8-.085Z" transform="translate(-34.388 -32.66)" fill="#cbced1"/>
    <path id="Path_326" data-name="Path 326" d="M82.991,60.087h2.082l4.69,5.753V61.416a1.522,1.522,0,0,0-.158-.882.84.84,0,0,0-.662-.238h-.266v-.209h2.67V60.3h-.272a.781.781,0,0,0-.69.294,1.719,1.719,0,0,0-.124.826v6.466h-.2L85,61.705v4.723a1.573,1.573,0,0,0,.152.883.855.855,0,0,0,.662.236h.272v.21h-2.67v-.21h.266a.785.785,0,0,0,.7-.293,1.715,1.715,0,0,0,.124-.826V61.094A3.439,3.439,0,0,0,84,60.58a1.825,1.825,0,0,0-.506-.232,1.788,1.788,0,0,0-.5-.052Z" transform="translate(-45.11 -32.66)" fill="#cbced1"/>
    <path id="Path_327" data-name="Path 327" d="M112.906,59.7v2.652H112.7a3.326,3.326,0,0,0-.365-1.216,1.9,1.9,0,0,0-.75-.718,2.071,2.071,0,0,0-1.006-.266,1.366,1.366,0,0,0-.973.36,1.092,1.092,0,0,0-.384.817.967.967,0,0,0,.243.639,6.251,6.251,0,0,0,1.668,1.131,11.527,11.527,0,0,1,1.468.886,2.153,2.153,0,0,1,.605.726,1.918,1.918,0,0,1,.213.878,1.984,1.984,0,0,1-.676,1.5,2.446,2.446,0,0,1-1.739.631,3.708,3.708,0,0,1-.629-.052,6.21,6.21,0,0,1-.727-.206,3.234,3.234,0,0,0-.7-.178.3.3,0,0,0-.223.085.671.671,0,0,0-.121.351h-.21V65.094h.21a3.7,3.7,0,0,0,.4,1.237,1.9,1.9,0,0,0,.761.681,2.356,2.356,0,0,0,1.123.271A1.594,1.594,0,0,0,112,66.91a1.158,1.158,0,0,0,.411-.883,1.2,1.2,0,0,0-.156-.571,1.719,1.719,0,0,0-.484-.538,13.954,13.954,0,0,0-1.205-.721,11.585,11.585,0,0,1-1.4-.88,2.376,2.376,0,0,1-.631-.723,1.8,1.8,0,0,1-.215-.871,1.888,1.888,0,0,1,.634-1.423,2.257,2.257,0,0,1,1.612-.6,3.245,3.245,0,0,1,1.3.3,1.325,1.325,0,0,0,.446.141.336.336,0,0,0,.241-.088.708.708,0,0,0,.15-.353Z" transform="translate(-58.877 -32.452)" fill="#cbced1"/>
    <path id="Path_328" data-name="Path 328" d="M128.628,60.506v3.032h1.686a1.376,1.376,0,0,0,.877-.2,1.276,1.276,0,0,0,.328-.917h.209v2.67h-.209a2.888,2.888,0,0,0-.159-.718.707.707,0,0,0-.333-.311,1.709,1.709,0,0,0-.713-.113h-1.686v2.528a2.352,2.352,0,0,0,.045.62.354.354,0,0,0,.159.175.953.953,0,0,0,.43.065h1.3a3.517,3.517,0,0,0,.945-.09,1.405,1.405,0,0,0,.565-.356,4.359,4.359,0,0,0,.719-1.057h.226l-.662,1.923h-5.912v-.21h.272a1.08,1.08,0,0,0,.515-.129.48.48,0,0,0,.246-.272,2.693,2.693,0,0,0,.065-.742V61.423a1.647,1.647,0,0,0-.147-.9.875.875,0,0,0-.679-.226h-.272v-.21h5.912l.084,1.68h-.22a2.681,2.681,0,0,0-.263-.832.911.911,0,0,0-.427-.345,2.581,2.581,0,0,0-.8-.085Z" transform="translate(-68.729 -32.66)" fill="#cbced1"/>
    <path id="Path_329" data-name="Path 329" d="M164.843,65.637l.187.04-.656,2.082h-5.94v-.21h.288a.771.771,0,0,0,.7-.316,1.828,1.828,0,0,0,.119-.837v-4.95a1.583,1.583,0,0,0-.159-.9.827.827,0,0,0-.656-.249h-.288v-.209h3.474V60.3a2.123,2.123,0,0,0-.857.114.7.7,0,0,0-.337.3,2.506,2.506,0,0,0-.09.866V66.4a1.59,1.59,0,0,0,.09.645.406.406,0,0,0,.21.175,3.6,3.6,0,0,0,.882.058h.561a4.042,4.042,0,0,0,1.239-.131,1.607,1.607,0,0,0,.65-.461,3.783,3.783,0,0,0,.589-1.043" transform="translate(-86.117 -32.661)" fill="#cbced1"/>
    <path id="Path_330" data-name="Path 330" d="M185.423,65.637l.187.04-.656,2.082h-5.94v-.21h.288a.77.77,0,0,0,.7-.316,1.82,1.82,0,0,0,.119-.837v-4.95a1.58,1.58,0,0,0-.158-.9.83.83,0,0,0-.656-.249h-.288v-.209h3.474V60.3a2.121,2.121,0,0,0-.857.114.694.694,0,0,0-.337.3,2.467,2.467,0,0,0-.09.866V66.4a1.564,1.564,0,0,0,.09.645.4.4,0,0,0,.209.175,3.617,3.617,0,0,0,.883.058h.56a4.035,4.035,0,0,0,1.238-.131,1.606,1.606,0,0,0,.65-.461,3.793,3.793,0,0,0,.589-1.043" transform="translate(-97.304 -32.661)" fill="#cbced1"/>
    <path id="Path_331" data-name="Path 331" d="M206.56,59.7l.176,2.608h-.176a3.281,3.281,0,0,0-1-1.686A2.439,2.439,0,0,0,204,60.111a2.415,2.415,0,0,0-2.35,1.624,5.486,5.486,0,0,0-.354,2.109,4.471,4.471,0,0,0,.334,1.8,2.5,2.5,0,0,0,1,1.171,2.888,2.888,0,0,0,1.53.408,2.654,2.654,0,0,0,1.319-.32,4.363,4.363,0,0,0,1.255-1.269l.175.114a4.029,4.029,0,0,1-1.346,1.5,3.4,3.4,0,0,1-1.827.476,3.459,3.459,0,0,1-2.953-1.415A4.039,4.039,0,0,1,200,63.833a4.4,4.4,0,0,1,.515-2.11,3.725,3.725,0,0,1,1.417-1.491,3.826,3.826,0,0,1,1.972-.529,3.618,3.618,0,0,1,1.64.407.892.892,0,0,0,.339.125.372.372,0,0,0,.266-.108.888.888,0,0,0,.21-.424Z" transform="translate(-108.713 -32.452)" fill="#cbced1"/>
    <path id="Path_332" data-name="Path 332" d="M32.007,24.974h-.34v.633h-.56v.339h.56v.637h.34v-.637h.56v-.339h-.56Z" transform="translate(-16.908 -13.575)" fill="#cbced1"/>
    <path id="Path_333" data-name="Path 333" d="M30.765,20.017a4.6,4.6,0,0,0-4.428-4.426v-.9H26v.9a4.6,4.6,0,0,0-4.428,4.426h-.893v.34h.893A4.6,4.6,0,0,0,26,24.786v.9h.34v-.9a4.6,4.6,0,0,0,4.428-4.429h.864v-.34Zm-4.428,4.09V21.4H26v2.709a3.926,3.926,0,0,1-3.748-3.75h2.763v-.34H22.25A3.925,3.925,0,0,1,26,16.27v2.719h.34V16.27a3.925,3.925,0,0,1,3.747,3.747h-2.76v.34h2.76a3.926,3.926,0,0,1-3.748,3.75" transform="translate(-11.239 -7.986)" fill="#cbced1"/>
  </g>
</svg>
