<svg xmlns="http://www.w3.org/2000/svg" width="341.336" height="239.048" viewBox="0 0 341.336 239.048">
  <g id="Group_4965" data-name="Group 4965" transform="translate(-525.888 -12897.365)">
    <g id="icon-community" transform="translate(525.888 12949.718)">
      <g id="Group_4859" data-name="Group 4859" transform="translate(0 0)">
        <path id="Path_4292" data-name="Path 4292" d="M86.422,54.177h-.011a1.873,1.873,0,0,0-1.82,1.491A40.479,40.479,0,0,1,68.764,79.7a1.875,1.875,0,0,0-.615,2.336h0a1.873,1.873,0,0,0,2.79.693,44.216,44.216,0,0,0,17.3-26.262A1.876,1.876,0,0,0,86.422,54.177Z" transform="translate(9.941 -2.815)" fill="#9ea1a3"/>
        <path id="Path_4293" data-name="Path 4293" d="M75.5,21.792a1.865,1.865,0,0,0,0-3.234A43.991,43.991,0,0,0,32.95,18.31a1.864,1.864,0,0,0-.016,3.241l.012.007a1.863,1.863,0,0,0,1.826.012A40.261,40.261,0,0,1,73.64,21.8a1.861,1.861,0,0,0,1.845,0Z" transform="translate(1.102 -12.947)" fill="#9ea1a3"/>
        <path id="Path_4294" data-name="Path 4294" d="M16.914,54.177H16.9a1.876,1.876,0,0,0-1.821,2.291A44.224,44.224,0,0,0,32.914,83.106a1.876,1.876,0,0,0,2.756-.673l0-.006a1.874,1.874,0,0,0-.623-2.386A40.476,40.476,0,0,1,18.734,55.668,1.876,1.876,0,0,0,16.914,54.177Z" transform="translate(-3.067 -2.815)" fill="#9ea1a3"/>
        <path id="Path_4295" data-name="Path 4295" d="M65.024,65.871A12.549,12.549,0,1,0,52.476,78.42,12.564,12.564,0,0,0,65.024,65.871Zm-21.361,0a8.812,8.812,0,1,1,8.812,8.812,8.823,8.823,0,0,1-8.812-8.812Z" transform="translate(3.05 -3.025)" fill="#9ea1a3"/>
        <path id="Path_4296" data-name="Path 4296" d="M68.675,88.324A1.762,1.762,0,0,0,70.4,89.861h.252A1.732,1.732,0,0,0,72.4,87.937a14.251,14.251,0,0,0-14.1-12.306h-9.2a14.252,14.252,0,0,0-14.1,12.306,1.731,1.731,0,0,0,1.739,1.925h.252a1.762,1.762,0,0,0,1.729-1.537,10.51,10.51,0,0,1,10.381-8.956h9.2A10.509,10.509,0,0,1,68.675,88.324Z" transform="translate(1.834 2.458)" fill="#9ea1a3"/>
        <path id="Path_4297" data-name="Path 4297" d="M35.478,29.613a12.55,12.55,0,1,0-12.55,12.548A12.564,12.564,0,0,0,35.478,29.613Zm-21.362,0a8.812,8.812,0,1,1,8.812,8.812A8.823,8.823,0,0,1,14.116,29.613Z" transform="translate(-4.211 -11.935)" fill="#9ea1a3"/>
        <path id="Path_4298" data-name="Path 4298" d="M5.443,51.679A1.731,1.731,0,0,0,7.182,53.6h.252a1.762,1.762,0,0,0,1.729-1.537A10.51,10.51,0,0,1,19.544,43.11h9.2a10.511,10.511,0,0,1,10.382,8.956A1.762,1.762,0,0,0,40.857,53.6h.252a1.731,1.731,0,0,0,1.739-1.925,14.251,14.251,0,0,0-14.1-12.306h-9.2A14.253,14.253,0,0,0,5.443,51.679Z" transform="translate(-5.428 -6.453)" fill="#9ea1a3"/>
        <path id="Path_4299" data-name="Path 4299" d="M94.571,29.613A12.55,12.55,0,1,0,82.023,42.161,12.564,12.564,0,0,0,94.571,29.613Zm-21.361,0a8.812,8.812,0,1,1,8.812,8.812A8.823,8.823,0,0,1,73.211,29.613Z" transform="translate(10.311 -11.935)" fill="#9ea1a3"/>
        <path id="Path_4300" data-name="Path 4300" d="M100.2,53.6h0a1.731,1.731,0,0,0,1.739-1.925,14.252,14.252,0,0,0-14.1-12.306h-9.2a14.253,14.253,0,0,0-14.1,12.306A1.73,1.73,0,0,0,66.275,53.6h.25a1.764,1.764,0,0,0,1.73-1.537A10.51,10.51,0,0,1,78.638,43.11h9.2a10.511,10.511,0,0,1,10.382,8.956,1.763,1.763,0,0,0,1.73,1.537Z" transform="translate(9.095 -6.453)" fill="#9ea1a3"/>
      </g>
    </g>
    <g id="Layer_2" data-name="Layer 2" transform="translate(636.939 13031.94)">
      <g id="Layer_1" data-name="Layer 1" transform="translate(0 0)">
        <g id="Page-1">
          <g id="DELTADEFENSE--Offers-PromoTemplate-Desktop">
            <g id="Group-8">
              <g id="Group-3">
                <g id="Group_4860" data-name="Group 4860">
                  <path id="Fill-1" d="M85.646,100.62H73.973V92.835a1.956,1.956,0,0,0-3.9,0v7.786H21.415V92.835a1.956,1.956,0,0,0-3.9,0v7.786H3.9V91.514A27.879,27.879,0,0,1,31.139,63.647l.005.623c0,6.229,5.843,11.336,13.006,11.336s13.006-5.1,13.006-11.336v-.623a29.288,29.288,0,0,1,28.49,29.188ZM43.676,51.75h-.224a.822.822,0,0,1,.349,0ZM19.471,35.418a15.7,15.7,0,0,1,.112-2.3c4.5,1.757,13.84,4.41,23.358,1.246A29.113,29.113,0,0,0,57.816,22.923c.76,5.843,3.015,13.84,9.518,18.574a24.765,24.765,0,0,1-2.492,6.117A45.345,45.345,0,0,1,48.236,51.6a4.609,4.609,0,1,0-.623,3.887A52.322,52.322,0,0,0,59.9,53.556,24.193,24.193,0,0,1,44.05,59.785H43.6a24.355,24.355,0,0,1-24.13-24.367ZM57.753,15.349h0c-3.9,7.786-9.169,12.943-15.908,15.123-8.857,2.9-17.827,0-21.4-1.495A24.267,24.267,0,0,1,57.89,15.349ZM13.317,25.414a31.866,31.866,0,0,1,60.656.311,6.565,6.565,0,0,0-2.853,2.915,28.167,28.167,0,0,0-54.651,0,6.515,6.515,0,0,0-3.177-3.052Zm.623,17.652a3.214,3.214,0,1,1-6.428,0V31.381a3.214,3.214,0,0,1,6.428,0ZM80.115,31.381V43.067a3.2,3.2,0,0,1-5.83,1.943,1.993,1.993,0,0,0-.311-.835l-.187-.162a3.239,3.239,0,0,1-.125-.847V31.481a3.214,3.214,0,0,1,6.416,0ZM68.068,36.975c-5.569-5.357-6.54-14.426-6.677-18.5a24.317,24.317,0,0,1,6.74,16.942v1.694ZM53.119,64.22c0,4.111-4.086,7.475-9.119,7.475s-9.119-3.364-9.119-7.475a2.363,2.363,0,0,1,.125-.573H53.119a5.833,5.833,0,0,1,0,.66Zm4.771-4.435a28.353,28.353,0,0,0,9.58-9.094,38.942,38.942,0,0,0,4.846-2.9,6.515,6.515,0,0,0,11.15-4.647V31.469a6.5,6.5,0,0,0-6.081-6.49,35.255,35.255,0,0,0-67.419,0,6.5,6.5,0,0,0-5.693,6.453V43.1A6.515,6.515,0,0,0,17.167,44.35,28.4,28.4,0,0,0,29.761,59.785,31.779,31.779,0,0,0,0,91.514v11.05a1.943,1.943,0,0,0,1.943,1.956H87.589a1.956,1.956,0,0,0,1.956-1.956V92.835A33.086,33.086,0,0,0,57.9,59.785Z" transform="translate(0 -0.047)" fill="#9ea1a3" fill-rule="evenodd"/>
                </g>
              </g>
              <path id="Fill-4" d="M9.412,40.952h0A4.223,4.223,0,0,1,5.2,36.729V26.588a4.223,4.223,0,1,1,8.434,0v10.14a4.236,4.236,0,0,1-4.223,4.223" transform="translate(1.277 5.381)" fill="#9ea1a3" fill-rule="evenodd"/>
              <path id="Fill-6" d="M62.554,40.952h0a4.236,4.236,0,0,1-4.223-4.223V26.588a4.223,4.223,0,1,1,8.434,0v10.14a4.223,4.223,0,0,1-4.211,4.223" transform="translate(14.334 5.381)" fill="#9ea1a3" fill-rule="evenodd"/>
            </g>
          </g>
        </g>
      </g>
    </g>
    <g id="icon-entry" transform="translate(670.427 12897.365)">
      <path id="Path_4301" data-name="Path 4301" d="M67.209,39.145l1.064-4.68a1,1,0,0,0-1.4-1.132l-4.361,2-4.122-2.458a1,1,0,0,0-1.509.977l.557,4.766-3.611,3.16a1,1,0,0,0,.463,1.737L59,44.46l1.891,4.411a1,1,0,0,0,1.794.1l2.351-4.183,4.779-.435a1,1,0,0,0,.647-1.677Z" transform="translate(6.916 -1.892)" fill="#9ea1a3"/>
      <path id="Path_4302" data-name="Path 4302" d="M115.038,36.684a1.867,1.867,0,0,0-2.581-.556,1.039,1.039,0,0,1-1.428-.3,1.008,1.008,0,0,1-.137-.764,1.031,1.031,0,0,1,.445-.648,1.868,1.868,0,0,0,.551-2.584l-3.231-4.99a1.867,1.867,0,0,0-2.58-.554,1.029,1.029,0,1,1-1.112-1.73,1.868,1.868,0,0,0,.544-2.577l-3.23-4.989a1.868,1.868,0,0,0-2.579-.556,1.027,1.027,0,0,1-1.425-.31,1,1,0,0,1-.141-.757,1.02,1.02,0,0,1,.443-.648,1.868,1.868,0,0,0,.552-2.582l-1.354-2.093A4.507,4.507,0,0,0,91.535,8.7L37.211,43.885a4.522,4.522,0,0,0-1.323,6.235L38.5,54.146a25.05,25.05,0,0,0-8.279,9.56L16.755,86.092c-.027.046-.052.092-.077.14a8.728,8.728,0,0,1-2.617,3.142L5.751,95.582a1.869,1.869,0,1,0,2.235,3l8.308-6.206c.041-.031.077-.069.118-.1l2.482,1.971A1.558,1.558,0,0,0,20.83,91.8l-2.193-1.74a12.348,12.348,0,0,0,1.357-2.108L33.465,65.563c.027-.046.054-.095.078-.143a21.326,21.326,0,0,1,7.11-8.221l.264-.181c1.7,2.545,3.843,5.641,4.908,7.173A2.635,2.635,0,0,0,45.8,66.57a3.08,3.08,0,0,0,3.464,1.815l.169-.052,2.908-.953c.786-.233,1.472-.466,2.1-.715a17.761,17.761,0,0,0,2.614-1.292L66.049,60a2.722,2.722,0,0,1,3.188,4.388l-18.585,16.4-3.015,2.771a23.585,23.585,0,0,1-11,5.706,1.557,1.557,0,0,0,.328,3.078,1.582,1.582,0,0,0,.33-.035,26.69,26.69,0,0,0,12.446-6.458l2.99-2.748,3.467-3.06a3.974,3.974,0,0,0,2.95.475,5.268,5.268,0,0,0,1.6,1.367l-1.183.531A5.234,5.234,0,0,0,57.2,89.422c.025.05.056.095.082.143l-2.707,2.854a14.891,14.891,0,0,1-6.467,4.148l-1.1.33a22.385,22.385,0,0,0-6.678,2.844,14.365,14.365,0,0,0-3.954,4.4l-7.411-5.881a1.558,1.558,0,0,0-1.937,2.44l7.679,6.094c-.673,1.031-1.379,2.042-2.019,2.926a1.869,1.869,0,0,0,3.027,2.193c.837-1.156,1.8-2.506,2.672-3.914l.407-.665a13.794,13.794,0,0,1,3.626-4.488,18.885,18.885,0,0,1,5.652-2.361l1.126-.338a18.747,18.747,0,0,0,8.035-5.1l2.643-2.787a5.6,5.6,0,0,0,2.033.4,5.366,5.366,0,0,0,2.377-.548L69.661,89.7a5.529,5.529,0,0,0,1.066-9.237l.622-.339A6.169,6.169,0,0,0,74.583,74.7a6.282,6.282,0,0,0-.765-2.974l41.244-26.7a4.523,4.523,0,0,0,1.329-6.247ZM68.912,85.3a1.772,1.772,0,0,1-.846,1.013l-5.373,2.408a1.824,1.824,0,0,1-1.941-.212,1.836,1.836,0,0,0-.681-.344c-.025-.044-.06-.08-.083-.125a2.114,2.114,0,0,1-.111-1.619,2.09,2.09,0,0,1,1.013-1.2l3.958-1.771a1.831,1.831,0,0,0,1.064-.137l.48-.214a1.813,1.813,0,0,1,2.521,2.2Zm.649-8.467L67.61,77.9a1.784,1.784,0,0,0-.321.224c-.019.009-.039.006-.057.015l-1.821.887-.071.026c-.066.026-.13.054-.191.081l-.238.095.006.02a2.623,2.623,0,0,0-.273.191,1.539,1.539,0,0,0-.354.014,2.746,2.746,0,0,1-2.7-.878c-.029-.05-.061-.1-.08-.14a2.741,2.741,0,0,1,1.251-3.7l4.181-2.069a1.594,1.594,0,0,0,.177-.137,1.434,1.434,0,0,0,.206-.019l1.076-.32a2.806,2.806,0,0,1,1.735.465,1.886,1.886,0,0,0,.287.679c.046.069.092.142.116.181a2.43,2.43,0,0,1-.977,3.324Zm43.469-34.951-7.872,5.1-.232-.358a1.246,1.246,0,1,0-2.09,1.355l.23.356L70.533,69.4a5.908,5.908,0,0,0-1.9-.33l2.661-2.348a5.837,5.837,0,0,0-6.84-9.4L55.462,62.7A14.848,14.848,0,0,1,53.3,63.769c-.539.213-1.141.417-1.88.637l-1.4.46-.937-1.446c-.046-.066-4.653-6.669-6.842-10.049-.006-.01-.017-.015-.024-.024a1.851,1.851,0,0,0-.278-.769l-2.911-4.49a.776.776,0,0,1,.222-1.07L83.606,18.291l.448.693a1.246,1.246,0,1,0,2.09-1.355l-.447-.691,7.872-5.1a.773.773,0,0,1,1.07.23l.546.845a4.766,4.766,0,0,0,4.765,7.35l1.619,2.5a4.756,4.756,0,0,0,4.758,7.35l1.617,2.5a4.76,4.76,0,0,0,4.763,7.35l.547.847A.778.778,0,0,1,113.031,41.887Z" transform="translate(-5 -7.977)" fill="#9ea1a3"/>
      <path id="Path_4303" data-name="Path 4303" d="M77.05,25.81a1.246,1.246,0,1,0-2.09,1.355l2.683,4.143a1.246,1.246,0,0,0,2.09-1.355Z" transform="translate(12.143 -3.734)" fill="#9ea1a3"/>
      <path id="Path_4304" data-name="Path 4304" d="M81.357,32.462a1.246,1.246,0,0,0-2.09,1.355l2.683,4.143a1.246,1.246,0,1,0,2.09-1.355Z" transform="translate(13.202 -2.099)" fill="#9ea1a3"/>
      <path id="Path_4305" data-name="Path 4305" d="M72.743,19.16a1.246,1.246,0,1,0-2.093,1.353l2.682,4.143A1.246,1.246,0,1,0,75.425,23.3Z" transform="translate(11.085 -5.368)" fill="#9ea1a3"/>
      <path id="Path_4306" data-name="Path 4306" d="M20.908,77.475a1.557,1.557,0,1,0-1.932,2.443l1.276,1.013a1.557,1.557,0,0,0,1.936-2.439Z" transform="translate(-1.711 9.021)" fill="#9ea1a3"/>
    </g>
    <g id="Page-1-2" data-name="Page-1" transform="translate(756.766 12979.628)">
      <g id="DELTADEFENSE--Offers-PromoTemplate-Desktop-2" data-name="DELTADEFENSE--Offers-PromoTemplate-Desktop" transform="translate(0)">
        <g id="noun_USA_2693330" transform="translate(0)">
          <path id="Shape" d="M53,86.046h0a3.585,3.585,0,0,1-1.461-.306c-1.46-.646-2.692-2.074-4.119-3.729-1.932-2.241-4.338-5.03-7.936-6.524l-1.758-.728C29.21,71.243,13.365,64.7,8.094,59.592-.024,51.731-.014,46.7,0,37.573q0-.671,0-1.377a17.466,17.466,0,0,1,1.736-7.561,18.089,18.089,0,0,0,1.217-3.543c.482-2.3.818-4.148,1.088-5.633a29.218,29.218,0,0,1,1-4.474,3.01,3.01,0,0,1,2.93-2.242,10.6,10.6,0,0,1,3.116.738,51.189,51.189,0,0,0,12.235,2.54c5.435.5,11.1,1.077,18.372,1.874a37.99,37.99,0,0,1,4.8.924,31.675,31.675,0,0,0,3.653.729c.363.041.935.092,1.66.157,11.518,1.029,22.271,2.706,22.951,7.959a1.713,1.713,0,0,1-.03.606,22.617,22.617,0,0,0-.513,2.831c.379-.233.793-.508,1.125-.729,1.68-1.117,3.585-2.383,5.488-2.383,1.649,0,3.753.9,4.412,5.164a.661.661,0,0,0,1.087.383,31.916,31.916,0,0,0,4.168-4.559c2.519-3.32,4.16-4.088,5.894-4.689a4.006,4.006,0,0,0,2.413-1.823c.684-.936,4.253-5.586,7.676-5.586,1.483,0,3.971.81,3.971,6.233,0,4.849-.772,6.156-1.863,7.472a4.089,4.089,0,0,0-1,2.019,17.938,17.938,0,0,0-.39,2.295c-.236,2-.574,3-3.009,4.82-2.254,1.683-2.254,1.683-3.408,4.3-1.877,4.28-1.625,6.034-1.441,7.314a8.348,8.348,0,0,1,.118,1.391c-.107,4.381-2.1,7.1-3.7,9.279-1.089,1.484-1.948,2.656-1.948,3.938,0,4.265.469,5.106.846,5.782a7.505,7.505,0,0,1,.941,4.334c0,5.815-2.764,8.418-5.5,8.418-1.295,0-3.257-.576-5.249-3.321-3.8-5.226-5-6.552-7.254-6.552-1.691,0-4.169.7-7.921,1.767q-1.029.292-2.192.619a24.191,24.191,0,0,1-5.112.641,23.983,23.983,0,0,0-3.236.311.419.419,0,0,0-.32.272,3.915,3.915,0,0,0-.14,1.931c.254,2.139-.237,3.429-3.814,5.415A3.871,3.871,0,0,1,53,86.046ZM8.233,16.181A32.075,32.075,0,0,0,7.4,20.069c-.274,1.506-.615,3.379-1.105,5.72a21.086,21.086,0,0,1-1.417,4.18A14.01,14.01,0,0,0,3.412,36.2q0,.71,0,1.383c-.018,8.99-.025,12.711,7.054,19.565,4.8,4.654,20.848,11.281,28.559,14.466l1.764.73c4.344,1.8,7.156,5.065,9.209,7.446a12.369,12.369,0,0,0,2.917,2.838.379.379,0,0,0,.3-.046c1.875-1.041,2.109-1.471,2.129-1.517a4.063,4.063,0,0,0-.044-.519,7.266,7.266,0,0,1,.281-3.38,3.833,3.833,0,0,1,2.867-2.559,26.168,26.168,0,0,1,3.742-.378,21.867,21.867,0,0,0,4.378-.519c.777-.218,1.5-.423,2.185-.617,4.169-1.182,6.686-1.9,8.85-1.9,4.231,0,6.284,2.826,10.01,7.957.871,1.2,1.8,1.916,2.492,1.916,1.009,0,2.1-1.916,2.1-5.012a4.388,4.388,0,0,0-.51-2.676c-.724-1.3-1.277-2.67-1.277-7.441,0-2.4,1.326-4.2,2.608-5.953,1.455-1.984,2.96-4.036,3.041-7.341a5.743,5.743,0,0,0-.085-.83c-.228-1.592-.574-4,1.695-9.17,1.446-3.277,1.656-3.541,4.486-5.655,1.5-1.126,1.517-1.229,1.666-2.49a21.492,21.492,0,0,1,.462-2.7,7.357,7.357,0,0,1,1.689-3.392c.579-.7,1.079-1.3,1.079-5.3,0-2.212-.473-2.768-.53-2.826h-.035c-.9,0-3.093,1.682-4.922,4.185a7.231,7.231,0,0,1-4.051,3.037c-1.08.374-2.2.761-4.3,3.53a34.713,34.713,0,0,1-4.666,5.087,4.067,4.067,0,0,1-6.669-2.451c-.082-.534-.4-2.278-1.046-2.278-.874,0-2.451,1.048-3.6,1.814-1.491.991-2.668,1.774-3.882,1.774h0a2.384,2.384,0,0,1-1.907-.906c-.846-1.066-.884-2.757-.119-6.172-.354-.725-2.2-2.026-7.373-3.137A108.47,108.47,0,0,0,51.514,23.1c-.748-.067-1.339-.12-1.744-.166a34.136,34.136,0,0,1-4.058-.8,35.328,35.328,0,0,0-4.381-.851c-7.251-.795-12.9-1.371-18.315-1.869a54.3,54.3,0,0,1-12.982-2.695C9.322,16.485,8.641,16.262,8.233,16.181Z" transform="translate(-0.002 3.132)" fill="#9ea1a3"/>
          <rect id="Rectangle" width="4.866" height="4.866" transform="translate(2.673 92.458)" fill="#9ea1a3"/>
          <rect id="Rectangle-2" data-name="Rectangle" width="4.866" height="4.866" transform="translate(7.54 87.592)" fill="#9ea1a3"/>
          <rect id="Rectangle-3" data-name="Rectangle" width="4.866" height="4.866" transform="translate(17.272 80.293)" fill="#9ea1a3"/>
          <rect id="Rectangle-4" data-name="Rectangle" width="4.866" height="4.866" transform="translate(12.406 72.993)" fill="#9ea1a3"/>
          <rect id="Rectangle-5" data-name="Rectangle" width="4.866" height="4.866" transform="translate(2.673 82.726)" fill="#9ea1a3"/>
          <rect id="Rectangle-6" data-name="Rectangle" width="4.866" height="4.866" transform="translate(14.839 94.891)" fill="#9ea1a3"/>
          <rect id="Rectangle-7" data-name="Rectangle" width="4.866" height="4.866" transform="translate(7.54 99.758)" fill="#9ea1a3"/>
          <rect id="Rectangle-8" data-name="Rectangle" width="4.866" height="4.866" transform="translate(7.54 77.86)" fill="#9ea1a3"/>
          <rect id="Rectangle-9" data-name="Rectangle" width="4.866" height="4.866" transform="translate(75.667 19.465)" fill="#9ea1a3"/>
          <rect id="Rectangle-10" data-name="Rectangle" width="4.866" height="4.866" transform="translate(80.533 14.599)" fill="#9ea1a3"/>
          <rect id="Rectangle-11" data-name="Rectangle" width="4.866" height="4.866" transform="translate(90.266 7.299)" fill="#9ea1a3"/>
          <rect id="Rectangle-12" data-name="Rectangle" width="4.866" height="4.866" transform="translate(85.399)" fill="#9ea1a3"/>
          <rect id="Rectangle-13" data-name="Rectangle" width="4.866" height="4.866" transform="translate(75.667 9.732)" fill="#9ea1a3"/>
          <rect id="Rectangle-14" data-name="Rectangle" width="4.866" height="4.866" transform="translate(80.533 4.866)" fill="#9ea1a3"/>
          <path id="Path" d="M32.675,31.336H8.344a1.7,1.7,0,1,1,0-3.406H32.675a1.7,1.7,0,1,1,0,3.406Z" transform="translate(1.629 6.864)" fill="#9ea1a3"/>
          <path id="Path-2" data-name="Path" d="M75.991,39.149H10.3a1.7,1.7,0,1,1,0-3.406H75.991a1.7,1.7,0,0,1,0,3.406Z" transform="translate(2.109 8.784)" fill="#9ea1a3"/>
          <path id="Path-3" data-name="Path" d="M20.063,54.194a1.7,1.7,0,0,1-1.7-1.7V25.727a1.7,1.7,0,0,1,3.406,0V52.491A1.7,1.7,0,0,1,20.063,54.194Z" transform="translate(4.509 5.904)" fill="#9ea1a3"/>
          <path id="Path-4" data-name="Path" d="M37.641,61.047a1.7,1.7,0,0,1-1.7-1.7v-21.9a1.7,1.7,0,0,1,3.406,0v21.9A1.7,1.7,0,0,1,37.641,61.047Z" transform="translate(8.829 8.784)" fill="#9ea1a3"/>
          <path id="Path-5" data-name="Path" d="M78.011,50.867H31.781a1.7,1.7,0,1,1,0-3.406H78.011a1.7,1.7,0,1,1,0,3.406Z" transform="translate(7.389 11.664)" fill="#9ea1a3"/>
          <path id="Path-6" data-name="Path" d="M59.125,59.607a1.7,1.7,0,0,1-1.7-1.7V43.3a1.7,1.7,0,1,1,3.406,0V57.9A1.7,1.7,0,0,1,59.125,59.607Z" transform="translate(14.109 10.224)" fill="#9ea1a3"/>
        </g>
      </g>
    </g>
  </g>
</svg>
