<svg id="uscca-logo" xmlns="http://www.w3.org/2000/svg" width="56.643" height="59.072" viewBox="0 0 56.643 59.072">
  <g id="TM" transform="translate(52.928 51.719)">
    <path id="Path_2239" data-name="Path 2239" d="M345.15,485.223a1.044,1.044,0,1,0-1.044-1.044A1.043,1.043,0,0,0,345.15,485.223Zm0-1.917a.872.872,0,1,1-.872.873A.868.868,0,0,1,345.15,483.306Z" transform="translate(-344.106 -483.134)" fill="#fff"/>
    <path id="Path_2240" data-name="Path 2240" d="M346.684,485.593h.192l.31.472h.222l-.32-.479a.351.351,0,0,0,.307-.354.385.385,0,0,0-.4-.364H346.5v1.2h.182Zm0-.573h.306a.216.216,0,0,1,.216.212.212.212,0,0,1-.216.2h-.306Z" transform="translate(-345.886 -484.423)" fill="#fff"/>
  </g>
  <g id="mark">
    <path id="Path_2241" data-name="Path 2241" d="M272.287,323.064h0Z" transform="translate(-252.223 -312.521)" fill="#fff"/>
    <path id="Path_2242" data-name="Path 2242" d="M318.858,321.476h5.011a52.656,52.656,0,0,0,5.944-26.833,54.785,54.785,0,0,1-23.4-12.562v5.829a57.8,57.8,0,0,0,19.148,10.172A49.4,49.4,0,0,1,318.858,321.476Z" transform="translate(-277.573 -282.081)" fill="#fff"/>
    <path id="Path_2243" data-name="Path 2243" d="M371.045,440.435a2.751,2.751,0,0,0-.623-.785,1.352,1.352,0,0,0-.916-.315,1.366,1.366,0,0,0-.945.337,3.065,3.065,0,0,0-.616.763l-5.351,8.914h3.182l3.683-6.555.986,1.829h-1.082l-1.508,2.608h4c.49.92,1.131,2.118,1.131,2.118h2.96Z" transform="translate(-319.301 -398.883)" fill="#fff"/>
    <path id="Path_2244" data-name="Path 2244" d="M334.372,370.84c6.936-11.983,7.172-22.3,7.172-22.3a50.163,50.163,0,0,1-10.924,22.3Z" transform="translate(-295.551 -331.445)" fill="#fff"/>
    <path id="Path_2245" data-name="Path 2245" d="M328.694,447.408a2.4,2.4,0,0,1-.909-.169,2.132,2.132,0,0,1-.727-.474,2.108,2.108,0,0,1-.479-.743,2.593,2.593,0,0,1-.169-.96,2.538,2.538,0,0,1,.173-.951,2.312,2.312,0,0,1,.479-.756,2.16,2.16,0,0,1,.723-.49,2.325,2.325,0,0,1,.909-.177h3.918l1.552-2.55h-5.47a4.987,4.987,0,0,0-1.876.344,4.288,4.288,0,0,0-1.488.982,4.621,4.621,0,0,0-.978,1.526,5.134,5.134,0,0,0-.357,1.942,5.436,5.436,0,0,0,.357,1.987,4.866,4.866,0,0,0,.978,1.583,4.522,4.522,0,0,0,1.488,1.049,4.577,4.577,0,0,0,1.876.395h3.922l1.61-2.536Z" transform="translate(-290.631 -399.479)" fill="#fff"/>
    <path id="Path_2246" data-name="Path 2246" d="M306.416,485.24v5.233a56.8,56.8,0,0,0,8.692-7.357h-6.191C308.114,483.835,307.3,484.546,306.416,485.24Z" transform="translate(-277.573 -431.402)" fill="#fff"/>
    <path id="Path_2247" data-name="Path 2247" d="M291.076,447.408h-5.532a2.442,2.442,0,0,1-.909-.167,2.171,2.171,0,0,1-.727-.477,2.11,2.11,0,0,1-.479-.743,2.605,2.605,0,0,1-.171-.96,2.533,2.533,0,0,1,.175-.951,2.338,2.338,0,0,1,.479-.756,2.162,2.162,0,0,1,.723-.49,2.325,2.325,0,0,1,.909-.177h3.918l1.55-2.55h-5.468a4.986,4.986,0,0,0-1.876.344,4.268,4.268,0,0,0-1.488.982,4.588,4.588,0,0,0-.978,1.526,5.09,5.09,0,0,0-.357,1.942,5.4,5.4,0,0,0,.357,1.987,4.831,4.831,0,0,0,.978,1.583,4.5,4.5,0,0,0,1.488,1.049,4.575,4.575,0,0,0,1.876.393l3.922,0Z" transform="translate(-258.58 -399.479)" fill="#fff"/>
    <path id="Path_2248" data-name="Path 2248" d="M245.61,449.718a2.67,2.67,0,0,0,1.042-.63,2.462,2.462,0,0,0,.6-1.011,4.559,4.559,0,0,0,.186-1.35,2.559,2.559,0,0,0-.747-2.016,3.167,3.167,0,0,0-2.18-.667h-4.244a1.027,1.027,0,0,1-.625-.155.629.629,0,0,1-.2-.535.609.609,0,0,1,.2-.528,1.078,1.078,0,0,1,.625-.146h5.411l1.55-2.552h-6.774a4.663,4.663,0,0,0-1.521.219,2.73,2.73,0,0,0-1.04.616,2.444,2.444,0,0,0-.594.96,3.93,3.93,0,0,0-.191,1.255,3.583,3.583,0,0,0,.175,1.151,2.292,2.292,0,0,0,.534.887,2.5,2.5,0,0,0,.911.572,3.706,3.706,0,0,0,1.306.2h4.244a1.006,1.006,0,0,1,.63.162.668.668,0,0,1,.2.543.69.69,0,0,1-.2.55.977.977,0,0,1-.63.168h-5.9l-1.552,2.521h7.264A4.679,4.679,0,0,0,245.61,449.718Z" transform="translate(-225.882 -399.472)" fill="#fff"/>
    <path id="Path_2249" data-name="Path 2249" d="M245.61,449.718a2.67,2.67,0,0,0,1.042-.63,2.462,2.462,0,0,0,.6-1.011,4.559,4.559,0,0,0,.186-1.35,2.559,2.559,0,0,0-.747-2.016,3.167,3.167,0,0,0-2.18-.667h-4.244a1.027,1.027,0,0,1-.625-.155.629.629,0,0,1-.2-.535.609.609,0,0,1,.2-.528,1.078,1.078,0,0,1,.625-.146h5.411l1.55-2.552h-6.774a4.663,4.663,0,0,0-1.521.219,2.73,2.73,0,0,0-1.04.616,2.444,2.444,0,0,0-.594.96,3.93,3.93,0,0,0-.191,1.255,3.583,3.583,0,0,0,.175,1.151,2.292,2.292,0,0,0,.534.887,2.5,2.5,0,0,0,.911.572,3.706,3.706,0,0,0,1.306.2h4.244a1.006,1.006,0,0,1,.63.162.668.668,0,0,1,.2.543.69.69,0,0,1-.2.55.977.977,0,0,1-.63.168h-5.9l-1.552,2.521h7.264A4.679,4.679,0,0,0,245.61,449.718Z" transform="translate(-225.882 -399.472)" fill="#fff"/>
    <path id="Path_2250" data-name="Path 2250" d="M202.1,445.627a2.772,2.772,0,0,1-.122.88,1.29,1.29,0,0,1-.4.6,1.69,1.69,0,0,1-.747.337,5.49,5.49,0,0,1-1.164.1,9.909,9.909,0,0,1-1.517-.1,2.2,2.2,0,0,1-.9-.324,1.135,1.135,0,0,1-.437-.594,3.044,3.044,0,0,1-.117-.909v-5.49h-2.4v5.49a5.541,5.541,0,0,0,.31,1.943,3.272,3.272,0,0,0,.967,1.388,4.321,4.321,0,0,0,1.674.834,9.205,9.205,0,0,0,2.426.28q4.859,0,4.86-4.444v-5.49H202.1Z" transform="translate(-194.292 -399.479)" fill="#fff"/>
    <path id="Path_2251" data-name="Path 2251" d="M202.1,445.627a2.772,2.772,0,0,1-.122.88,1.29,1.29,0,0,1-.4.6,1.69,1.69,0,0,1-.747.337,5.49,5.49,0,0,1-1.164.1,9.909,9.909,0,0,1-1.517-.1,2.2,2.2,0,0,1-.9-.324,1.135,1.135,0,0,1-.437-.594,3.044,3.044,0,0,1-.117-.909v-5.49h-2.4v5.49a5.541,5.541,0,0,0,.31,1.943,3.272,3.272,0,0,0,.967,1.388,4.321,4.321,0,0,0,1.674.834,9.205,9.205,0,0,0,2.426.28q4.859,0,4.86-4.444v-5.49H202.1Z" transform="translate(-194.292 -399.479)" fill="#fff"/>
    <path id="Path_2252" data-name="Path 2252" d="M265,483.116a56.809,56.809,0,0,0,8.692,7.357V485.24c-.88-.694-1.7-1.406-2.5-2.124Z" transform="translate(-246.812 -431.402)" fill="#fff"/>
    <path id="Path_2253" data-name="Path 2253" d="M220.981,321.513a8.734,8.734,0,0,1,2.411-7.2c4.646-4.714,13.4-2.286,13.2,4.444,0,.016,13.415-9.308-2.774-15.914,4.022-5.393-7.854-9.663-9.661-10.179h0a56.29,56.29,0,0,0,6.817-4.714v-5.815a54.8,54.8,0,0,1-23.4,12.549,52.654,52.654,0,0,0,5.943,26.833Zm.7-18.775,1.424-4.4,1.392,4.4h4.709l-3.794,2.847,1.472,4.515-3.781-2.78-3.779,2.78,1.488-4.515-3.829-2.847Z" transform="translate(-204.094 -282.118)" fill="#fff"/>
  </g>
</svg>
